<mxfile host="app.diagrams.net" modified="2023-12-08T21:31:51.041Z" agent="Mozilla/5.0 (Windows NT 10.0; Win64; x64) AppleWebKit/537.36 (KHTML, like Gecko) Chrome/119.0.0.0 Safari/537.36" etag="hNthDNRXSkAwV3085uxf" version="22.1.7" type="onedrive">
  <diagram name="Page-1" id="RVdfvZqQTUyCIhG_kKDa">
    <mxGraphModel grid="1" page="1" gridSize="10" guides="1" tooltips="1" connect="1" arrows="1" fold="1" pageScale="1" pageWidth="827" pageHeight="1169" math="0" shadow="0">
      <root>
        <mxCell id="0" />
        <mxCell id="1" parent="0" />
        <mxCell id="zs9eeuLA0aOkDHpI58jf-34" value="" style="rounded=0;whiteSpace=wrap;html=1;fillColor=#f8cecc;strokeColor=#b85450;" vertex="1" parent="1">
          <mxGeometry x="567.5" y="240" width="10" height="270" as="geometry" />
        </mxCell>
        <mxCell id="zs9eeuLA0aOkDHpI58jf-33" value="" style="rounded=0;whiteSpace=wrap;html=1;fillColor=#d5e8d4;strokeColor=#82b366;" vertex="1" parent="1">
          <mxGeometry x="557.5" y="240" width="10" height="270" as="geometry" />
        </mxCell>
        <mxCell id="zs9eeuLA0aOkDHpI58jf-32" value="" style="rounded=0;whiteSpace=wrap;html=1;fillColor=#dae8fc;strokeColor=#6c8ebf;" vertex="1" parent="1">
          <mxGeometry x="547.5" y="240" width="10" height="270" as="geometry" />
        </mxCell>
        <mxCell id="-8nP2gIb0oRymnTxciAP-14" value="IMAGE_SECTION_HEADER.Characteristics" style="text;html=1;strokeColor=none;fillColor=none;align=center;verticalAlign=middle;whiteSpace=wrap;rounded=0;" vertex="1" parent="1">
          <mxGeometry x="340" y="90" width="250" height="30" as="geometry" />
        </mxCell>
        <mxCell id="-8nP2gIb0oRymnTxciAP-16" value="0x1d" style="text;html=1;strokeColor=none;fillColor=none;align=center;verticalAlign=middle;whiteSpace=wrap;rounded=0;" vertex="1" parent="1">
          <mxGeometry x="385" y="120" width="60" height="30" as="geometry" />
        </mxCell>
        <mxCell id="-8nP2gIb0oRymnTxciAP-17" value="0x1e" style="text;html=1;strokeColor=none;fillColor=none;align=center;verticalAlign=middle;whiteSpace=wrap;rounded=0;" vertex="1" parent="1">
          <mxGeometry x="540" y="120" width="60" height="30" as="geometry" />
        </mxCell>
        <mxCell id="-8nP2gIb0oRymnTxciAP-18" value="0x0" style="text;html=1;strokeColor=none;fillColor=none;align=center;verticalAlign=middle;whiteSpace=wrap;rounded=0;" vertex="1" parent="1">
          <mxGeometry x="150" y="120" width="60" height="30" as="geometry" />
        </mxCell>
        <mxCell id="zs9eeuLA0aOkDHpI58jf-1" value="Bits:" style="text;html=1;strokeColor=none;fillColor=none;align=center;verticalAlign=middle;whiteSpace=wrap;rounded=0;" vertex="1" parent="1">
          <mxGeometry x="100" y="120" width="30" height="30" as="geometry" />
        </mxCell>
        <mxCell id="zs9eeuLA0aOkDHpI58jf-5" value="0x1f" style="text;html=1;strokeColor=none;fillColor=none;align=center;verticalAlign=middle;whiteSpace=wrap;rounded=0;" vertex="1" parent="1">
          <mxGeometry x="705" y="120" width="60" height="30" as="geometry" />
        </mxCell>
        <mxCell id="zs9eeuLA0aOkDHpI58jf-11" value="&lt;div style=&quot;color: rgb(56, 58, 66); background-color: rgb(250, 250, 250); font-family: Consolas, &amp;quot;Courier New&amp;quot;, monospace; font-size: 14px; line-height: 19px;&quot;&gt;PAGE_NOACCESS:0x1&lt;/div&gt;" style="rounded=0;whiteSpace=wrap;html=1;" vertex="1" parent="1">
          <mxGeometry x="305.5" y="240" width="230" height="40" as="geometry" />
        </mxCell>
        <mxCell id="zs9eeuLA0aOkDHpI58jf-12" value="AddrOffset" style="text;html=1;strokeColor=none;fillColor=none;align=center;verticalAlign=middle;whiteSpace=wrap;rounded=0;" vertex="1" parent="1">
          <mxGeometry x="553" y="210" width="60" height="30" as="geometry" />
        </mxCell>
        <mxCell id="zs9eeuLA0aOkDHpI58jf-13" value="0 0 0 00 :0x0" style="text;html=1;strokeColor=none;fillColor=none;align=center;verticalAlign=middle;whiteSpace=wrap;rounded=0;" vertex="1" parent="1">
          <mxGeometry x="538" y="245" width="90" height="30" as="geometry" />
        </mxCell>
        <mxCell id="zs9eeuLA0aOkDHpI58jf-14" value="1 0 0 00 :0x10" style="text;html=1;strokeColor=none;fillColor=none;align=center;verticalAlign=middle;whiteSpace=wrap;rounded=0;" vertex="1" parent="1">
          <mxGeometry x="539" y="305" width="95" height="30" as="geometry" />
        </mxCell>
        <mxCell id="zs9eeuLA0aOkDHpI58jf-16" value="..." style="rounded=0;whiteSpace=wrap;html=1;container=0;" vertex="1" parent="1">
          <mxGeometry x="305.5" y="280" width="230" height="20" as="geometry" />
        </mxCell>
        <mxCell id="zs9eeuLA0aOkDHpI58jf-17" value="&lt;div style=&quot;color: rgb(56, 58, 66); background-color: rgb(250, 250, 250); font-family: Consolas, &amp;quot;Courier New&amp;quot;, monospace; font-size: 14px; line-height: 19px;&quot;&gt;&lt;div style=&quot;line-height: 19px;&quot;&gt;PAGE_READONLY:0x2&lt;/div&gt;&lt;/div&gt;" style="rounded=0;whiteSpace=wrap;html=1;" vertex="1" parent="1">
          <mxGeometry x="305.5" y="300" width="230" height="40" as="geometry" />
        </mxCell>
        <mxCell id="zs9eeuLA0aOkDHpI58jf-18" value="&lt;div style=&quot;color: rgb(56, 58, 66); background-color: rgb(250, 250, 250); font-family: Consolas, &amp;quot;Courier New&amp;quot;, monospace; font-size: 14px; line-height: 19px;&quot;&gt;&lt;div style=&quot;line-height: 19px;&quot;&gt;PAGE_READWRITE:0x4&lt;/div&gt;&lt;/div&gt;" style="rounded=0;whiteSpace=wrap;html=1;" vertex="1" parent="1">
          <mxGeometry x="305.5" y="360" width="230" height="40" as="geometry" />
        </mxCell>
        <mxCell id="zs9eeuLA0aOkDHpI58jf-20" value="..." style="rounded=0;whiteSpace=wrap;html=1;container=0;" vertex="1" parent="1">
          <mxGeometry x="305.5" y="340" width="230" height="20" as="geometry" />
        </mxCell>
        <mxCell id="zs9eeuLA0aOkDHpI58jf-22" value="1 1 0 00 :0x18" style="text;html=1;strokeColor=none;fillColor=none;align=center;verticalAlign=middle;whiteSpace=wrap;rounded=0;" vertex="1" parent="1">
          <mxGeometry x="539.5" y="365" width="95" height="30" as="geometry" />
        </mxCell>
        <mxCell id="zs9eeuLA0aOkDHpI58jf-23" value="..." style="rounded=0;whiteSpace=wrap;html=1;container=0;" vertex="1" parent="1">
          <mxGeometry x="305.5" y="400" width="230" height="20" as="geometry" />
        </mxCell>
        <mxCell id="zs9eeuLA0aOkDHpI58jf-25" value="&lt;div style=&quot;color: rgb(56, 58, 66); background-color: rgb(250, 250, 250); font-family: Consolas, &amp;quot;Courier New&amp;quot;, monospace; font-size: 14px; line-height: 19px;&quot;&gt;&lt;div style=&quot;line-height: 19px;&quot;&gt;&lt;div style=&quot;line-height: 19px;&quot;&gt;PAGE_EXECUTE_READWRITE:0x40&lt;/div&gt;&lt;/div&gt;&lt;/div&gt;" style="rounded=0;whiteSpace=wrap;html=1;" vertex="1" parent="1">
          <mxGeometry x="305.5" y="420" width="230" height="40" as="geometry" />
        </mxCell>
        <mxCell id="zs9eeuLA0aOkDHpI58jf-26" value="Protection Array" style="text;html=1;strokeColor=none;fillColor=none;align=center;verticalAlign=middle;whiteSpace=wrap;rounded=0;" vertex="1" parent="1">
          <mxGeometry x="295.5" y="210" width="250" height="30" as="geometry" />
        </mxCell>
        <mxCell id="zs9eeuLA0aOkDHpI58jf-27" value="1 1 1 00 :0x1c" style="text;html=1;strokeColor=none;fillColor=none;align=center;verticalAlign=middle;whiteSpace=wrap;rounded=0;" vertex="1" parent="1">
          <mxGeometry x="538.5" y="425" width="95" height="30" as="geometry" />
        </mxCell>
        <mxCell id="zs9eeuLA0aOkDHpI58jf-28" value="..." style="rounded=0;whiteSpace=wrap;html=1;container=0;" vertex="1" parent="1">
          <mxGeometry x="305.5" y="460" width="230" height="20" as="geometry" />
        </mxCell>
        <mxCell id="zs9eeuLA0aOkDHpI58jf-29" value="&lt;div style=&quot;color: rgb(56, 58, 66); background-color: rgb(250, 250, 250); font-family: Consolas, &amp;quot;Courier New&amp;quot;, monospace; font-size: 14px; line-height: 19px;&quot;&gt;&lt;div style=&quot;line-height: 19px;&quot;&gt;&lt;div style=&quot;line-height: 19px;&quot;&gt;PAGE_EXECUTE_READ:0x20&lt;/div&gt;&lt;/div&gt;&lt;/div&gt;" style="rounded=0;whiteSpace=wrap;html=1;" vertex="1" parent="1">
          <mxGeometry x="305.5" y="480" width="230" height="40" as="geometry" />
        </mxCell>
        <mxCell id="zs9eeuLA0aOkDHpI58jf-30" value="1 0 1 00 :0x14" style="text;html=1;strokeColor=none;fillColor=none;align=center;verticalAlign=middle;whiteSpace=wrap;rounded=0;" vertex="1" parent="1">
          <mxGeometry x="539.5" y="485" width="95" height="30" as="geometry" />
        </mxCell>
        <mxCell id="zs9eeuLA0aOkDHpI58jf-35" value="" style="group" connectable="0" vertex="1" parent="1">
          <mxGeometry x="110" y="150" width="710" height="30" as="geometry" />
        </mxCell>
        <mxCell id="-8nP2gIb0oRymnTxciAP-2" value="IMAGE_SCN_TYPE_NO_PAD" style="rounded=0;whiteSpace=wrap;html=1;container=0;" vertex="1" parent="zs9eeuLA0aOkDHpI58jf-35">
          <mxGeometry width="170" height="30" as="geometry" />
        </mxCell>
        <mxCell id="-8nP2gIb0oRymnTxciAP-4" value="&lt;div style=&quot;color: rgb(56, 58, 66); font-family: Consolas, &amp;quot;Courier New&amp;quot;, monospace; font-size: 14px; line-height: 19px;&quot;&gt;IMAGE_SCN_MEM_READ&lt;/div&gt;" style="rounded=0;whiteSpace=wrap;html=1;container=0;fillColor=#dae8fc;strokeColor=#6c8ebf;" vertex="1" parent="zs9eeuLA0aOkDHpI58jf-35">
          <mxGeometry x="230" width="150" height="30" as="geometry" />
        </mxCell>
        <mxCell id="zs9eeuLA0aOkDHpI58jf-2" value="&lt;div style=&quot;color: rgb(56, 58, 66); font-family: Consolas, &amp;quot;Courier New&amp;quot;, monospace; font-size: 14px; line-height: 19px;&quot;&gt;IMAGE_SCN_MEM_WRITE&lt;/div&gt;" style="rounded=0;whiteSpace=wrap;html=1;container=0;fillColor=#d5e8d4;strokeColor=#82b366;" vertex="1" parent="zs9eeuLA0aOkDHpI58jf-35">
          <mxGeometry x="380" width="160" height="30" as="geometry" />
        </mxCell>
        <mxCell id="zs9eeuLA0aOkDHpI58jf-4" value="&lt;div style=&quot;color: rgb(56, 58, 66); font-family: Consolas, &amp;quot;Courier New&amp;quot;, monospace; font-size: 14px; line-height: 19px;&quot;&gt;IMAGE_SCN_MEM_EXECUTE&lt;/div&gt;" style="rounded=0;whiteSpace=wrap;html=1;container=0;fillColor=#f8cecc;strokeColor=#b85450;" vertex="1" parent="zs9eeuLA0aOkDHpI58jf-35">
          <mxGeometry x="540" width="170" height="30" as="geometry" />
        </mxCell>
        <mxCell id="zs9eeuLA0aOkDHpI58jf-8" value="..." style="rounded=0;whiteSpace=wrap;html=1;container=0;" vertex="1" parent="zs9eeuLA0aOkDHpI58jf-35">
          <mxGeometry x="170" width="60" height="30" as="geometry" />
        </mxCell>
      </root>
    </mxGraphModel>
  </diagram>
</mxfile>
